<?xml version="1.0" encoding="utf-8"?>
<!-- Generator: Adobe Illustrator 21.0.2, SVG Export Plug-In . SVG Version: 6.00 Build 0)  -->
<svg version="1.1" xmlns="http://www.w3.org/2000/svg" xmlns:xlink="http://www.w3.org/1999/xlink" x="0px" y="0px"
	 viewBox="0 0 706.4 80.8" style="enable-background:new 0 0 706.4 80.8;" xml:space="preserve">
<style type="text/css">
	.st0{fill:#FFFFFF;}
	.st1{enable-background:new    ;}
</style>
<g id="Background_xA0_Image_1_">
</g>
<g id="_x2F__x2F_ACKFERENCE">
	<g>
		<path class="st0" d="M45.3,4.7L18.7,76.1H5.2L31.8,4.7H45.3z"/>
		<path class="st0" d="M86.6,4.7L60,76.1H46.5L73.1,4.7H86.6z"/>
		<path class="st0" d="M136.8,76.1l-4.9-17h-24.6l-4.9,17H87.1l23.2-71.7h18.5l23.3,71.7H136.8z M128.4,46.4l-4.6-15.6
			c-0.2-0.6-0.5-1.5-0.9-2.9c-0.4-1.3-0.8-2.8-1.2-4.4c-0.4-1.6-0.9-3.2-1.2-4.9c-0.4-1.6-0.7-3-0.8-4.2c-0.1,0.7-0.3,1.6-0.5,2.5
			c-0.2,1-0.5,2-0.7,3.1c-0.3,1.1-0.6,2.2-0.9,3.3c-0.3,1.1-0.6,2.1-0.8,3.1c-0.3,1-0.5,1.8-0.7,2.6c-0.2,0.7-0.4,1.3-0.5,1.7
			L111,46.4H128.4z"/>
		<path class="st0" d="M191.4,16.3c-2.9,0-5.5,0.6-7.7,1.7c-2.2,1.1-4.1,2.7-5.6,4.8s-2.7,4.7-3.4,7.7c-0.8,3-1.2,6.4-1.2,10.1
			c0,3.8,0.3,7.2,1,10.2c0.7,3,1.8,5.5,3.2,7.5c1.4,2,3.3,3.6,5.6,4.6c2.3,1.1,5,1.6,8.1,1.6c2.9,0,5.8-0.3,8.7-1
			c2.9-0.7,6.1-1.6,9.5-2.8v12.7c-1.6,0.7-3.1,1.2-4.6,1.7c-1.5,0.5-3.1,0.8-4.7,1.1c-1.6,0.3-3.2,0.5-4.9,0.7
			c-1.7,0.1-3.5,0.2-5.4,0.2c-5.5,0-10.3-0.9-14.3-2.6c-4-1.8-7.4-4.2-10-7.4c-2.6-3.2-4.6-7-5.9-11.5s-1.9-9.5-1.9-15
			c0-5.4,0.7-10.4,2.2-14.9c1.5-4.5,3.6-8.4,6.4-11.6c2.8-3.3,6.3-5.8,10.5-7.6c4.2-1.8,9-2.7,14.4-2.7c3.5,0,7.1,0.4,10.7,1.3
			c3.6,0.9,7,2.1,10.2,3.7L207.4,21c-2.7-1.3-5.4-2.4-8.1-3.3C196.7,16.8,194,16.3,191.4,16.3z"/>
		<path class="st0" d="M279.2,76.1H262l-16.4-29.7l-5.7,4.2v25.5h-15.1V4.7H240v34.4l6-10.1l16.3-24.3H279l-22.8,32.2L279.2,76.1z"
			/>
		<path class="st0" d="M303.1,76.1h-14.9V4.7h40.9v12.4h-26v18.4h24.2v12.4h-24.2V76.1z"/>
		<path class="st0" d="M384.2,76.1h-41.1V4.7h41.1v12.4h-26v15.7h24.2v12.4h-24.2v18.4h26V76.1z"/>
		<path class="st0" d="M414.2,48.7v27.4h-15.1V4.7h19.5c9.1,0,15.9,1.8,20.3,5.3c4.4,3.5,6.5,8.9,6.5,16.1c0,2.4-0.3,4.7-1,6.6
			c-0.7,2-1.5,3.8-2.6,5.3c-1.1,1.5-2.3,2.9-3.8,4.1c-1.4,1.2-2.9,2.1-4.5,2.9c3.6,5.8,6.9,11,9.7,15.5c1.2,2,2.4,3.9,3.6,5.7
			c1.2,1.9,2.2,3.5,3.1,5c0.9,1.5,1.7,2.6,2.2,3.5l0.8,1.4h-16.8l-15.5-27.4H414.2z M414.2,36.4h4.1c4.2,0,7.2-0.8,9-2.5
			c1.8-1.7,2.7-4.1,2.7-7.4c0-3.4-1-5.8-2.9-7.2c-2-1.4-5-2.1-9.1-2.1h-3.9V36.4z"/>
		<path class="st0" d="M503.2,76.1h-41.1V4.7h41.1v12.4h-26v15.7h24.2v12.4h-24.2v18.4h26V76.1z"/>
		<path class="st0" d="M578.4,76.1h-19.2l-28.1-54h-0.4c0.2,2.5,0.4,5,0.5,7.5c0.1,2.1,0.2,4.3,0.3,6.7c0.1,2.3,0.1,4.4,0.1,6.3
			v33.6h-13.5V4.7h19.1l28,53.5h0.3c-0.1-2.5-0.2-4.9-0.3-7.3c0-1-0.1-2.1-0.1-3.2c0-1.1-0.1-2.2-0.1-3.3c0-1.1-0.1-2.1-0.1-3.1
			c0-1,0-1.9,0-2.7V4.7h13.6V76.1z"/>
		<path class="st0" d="M626.7,16.3c-2.9,0-5.5,0.6-7.7,1.7c-2.2,1.1-4.1,2.7-5.6,4.8s-2.7,4.7-3.4,7.7c-0.8,3-1.2,6.4-1.2,10.1
			c0,3.8,0.3,7.2,1,10.2c0.7,3,1.8,5.5,3.2,7.5c1.4,2,3.3,3.6,5.6,4.6c2.3,1.1,5,1.6,8.1,1.6c2.9,0,5.8-0.3,8.7-1
			c2.9-0.7,6.1-1.6,9.5-2.8v12.7c-1.6,0.7-3.1,1.2-4.6,1.7c-1.5,0.5-3.1,0.8-4.7,1.1c-1.6,0.3-3.2,0.5-4.9,0.7
			c-1.7,0.1-3.5,0.2-5.4,0.2c-5.5,0-10.3-0.9-14.3-2.6c-4-1.8-7.4-4.2-10-7.4c-2.6-3.2-4.6-7-5.9-11.5s-1.9-9.5-1.9-15
			c0-5.4,0.7-10.4,2.2-14.9c1.5-4.5,3.6-8.4,6.4-11.6c2.8-3.3,6.3-5.8,10.5-7.6c4.2-1.8,9-2.7,14.4-2.7c3.5,0,7.1,0.4,10.7,1.3
			c3.6,0.9,7,2.1,10.2,3.7L642.7,21c-2.7-1.3-5.4-2.4-8.1-3.3C632,16.8,629.3,16.3,626.7,16.3z"/>
		<path class="st0" d="M701.2,76.1h-41.1V4.7h41.1v12.4h-26v15.7h24.2v12.4h-24.2v18.4h26V76.1z"/>
	</g>
</g>
<g id="_x32__0_14">
</g>
<g id="Shape_1_1_" class="st1">
</g>
<g id="Shape_1_copy_1_" class="st1">
</g>
</svg>
