<svg id="Layer_1" data-name="Layer 1" xmlns="http://www.w3.org/2000/svg" viewBox="0 0 492.45 672.29">
  <title>mike-elsmore</title>
  <g id="JtUTLT.tif">
    <path d="M545,298.89c-2.15,8.88-4.09,17.81-6.53,26.61-2,7.35-4.59,14.56-7.07,21.78-2,6-4.29,11.84-6.5,17.74-.45,1.2-1.15,2.3-2.25,4.44a24.74,24.74,0,0,1-.8-3.58c-.67-22.7-3.63-45-10.25-66.82-5.24-17.25-13.88-32-30.65-40.61-10.71-5.48-22.33-7.58-34.14-8.26-17.59-1-35.21-1.55-52.83-2.1-15.4-.48-30.92.3-46.17-1.37-11.94-1.31-23.56-5.53-35.33-8.41-5.95-1.46-11.9-2.9-17.88-4.22-6.29-1.4-10.48,5.7-9.28,11,.77,3.41,1.68,6.79,2.45,10.2a18.35,18.35,0,0,1,0,3.18,44.51,44.51,0,0,1-5.89-2.17c-19.27-10.58-39.73-18.16-61.34-21.61-26.39-4.21-52.19-1.76-75.66,12.57S104.62,282,92.54,306.16C83.64,324,76.58,342.67,68.8,361c-1.09,2.57-1.59,5.4-2.44,8.08-.13.4-.68.66-1.63,1.54a37.33,37.33,0,0,1-1.85-4.55,233.59,233.59,0,0,1-6.83-74.25c1.63-23.44,6-46.53,16-68,4.52-9.64,9.86-19,18.07-26.09,4.19-3.64,5.12-7.06,3.1-12.6-4.21-11.51-8.94-23.21-10.53-35.22-1.87-14.2-.8-28.8-.68-43.23,0-3.76,2.17-6.26,6.62-5,5.43,1.54,10.87,3,16.31,4.51a24.16,24.16,0,0,0,4.8,1.29c1.37.08,3.31-.17,4-1.05.56-.7-.22-2.65-.68-3.94-2-5.55-4.08-11.07-6.13-16.6h1a23.32,23.32,0,0,0,2.28,1.92c11.15,7.24,23.92,9,36.67,9.73,13.9.75,27.87.4,41.81.12,24.27-.48,48.53-1.63,72.8-1.81,22-.16,43.92.5,65.88,1a160.64,160.64,0,0,1,19.85,1.52c12.48,1.84,25.16,3.21,37.26,6.57a281.35,281.35,0,0,1,42.08,15.15c15.79,7.25,28.05,19.22,38,33.62a25,25,0,0,0,10.4,8C501.63,173.09,521.44,191.59,533,218c5.28,12.07,8.08,25.23,12,37.9Z" transform="translate(-52.55 -85.89)"/>
    <path d="M545,426.89c-.95,5.22-1.62,10.52-3,15.63-.51,1.9-2.42,4.53-4.07,4.84-9.74,1.79-13.07,9.37-15.5,17.17C520.29,471.47,520,479,518,486c-1.07,3.75-3.15,8.6-6.19,10.13-8.68,4.37-17.82,8.65-27.26,10.51A284.78,284.78,0,0,1,414,511.87c-19-1-38.2-1.51-56.46-8.52-9.34-3.58-15.1-10-18.58-18.86-3.41-8.64-6.06-17.6-9.6-26.19-4.09-9.94-12.14-16.42-21.73-20.25a20.53,20.53,0,0,0-14.05.14c-13.63,5.59-21.3,16.57-25.66,30.55-2.74,8.79-6.2,17.66-11.06,25.41-5.35,8.53-15.4,10.72-24.67,12.69a252.24,252.24,0,0,1-64.49,5c-21-1-42.21-1.71-62.55-8.48-10-3.33-16-9.93-19.29-19.79-2.8-8.5-5.85-17-9.43-25.15a20.06,20.06,0,0,0-13-11.58c-1.92-.59-4.1-3.71-4.33-5.86-1.39-13.38-2.19-26.82-3.35-40.22-.39-4.43,1.52-6.52,5.73-6.92,14.71-1.4,29.44-2.73,44.14-4.21,36.06-3.63,72.22-1.66,108.33-1.84,21.37-.11,42.19,2.89,62.13,12,17.27,7.92,35.3,6.87,52.66-1.33a99.23,99.23,0,0,1,40.45-9.7c34.3-.73,68.62-1.54,102.9-.86,20.69.41,41.34,3.53,62,5.49,3.63.34,7.24.93,10.86,1.41Zm-110.87-29.8v0c-15.13,0-30.26,0-45.39,0a75.34,75.34,0,0,0-32.34,7.2c-13.19,6.16-20.37,16.6-20.23,31.56a112.49,112.49,0,0,0,9.68,44,38.64,38.64,0,0,0,17.34,18.57c12.15,6.72,25.7,6.46,38.83,7.14,16.28.84,32.66.72,49,0,12.72-.54,25.67-1.46,37.13-8.08,9.36-5.41,17.15-12,20.88-23a106,106,0,0,0,5.72-42.72c-1.73-22-14.59-32.47-34.7-34.35C464.83,395.95,449.43,397.09,434.13,397.09Zm-265.93,0v-1c-11,0-22-.6-33,.18-9.18.66-18.59,1.91-27.3,4.72-14.45,4.67-23.35,21.52-21.54,39,1.12,10.86,1.4,21.86,5.58,32.27,4.57,11.36,11.36,20.46,22.67,25.89S138,505.46,150,505.49c23.93.05,47.9-.43,71.76-2.07,15.28-1.05,27.64-9,34-23.51,6.53-14.85,10.47-30.5,10-46.92-.27-8.94-4.3-16.38-10.9-22.19-10.46-9.21-23.43-12.76-36.79-13.48C201.49,396.41,184.83,397.09,168.2,397.09Z" transform="translate(-52.55 -85.89)"/>
    <path d="M536,472.3c3.48,6.64,6,13.44,6.09,20.76.19,22.12.63,44.2-3.55,66.17-4.9,25.76-8.9,51.7-13,77.6-1.64,10.38-3.23,20.53-9.15,29.69-7.12,11-17,19.06-27.4,26.44a239.22,239.22,0,0,1-52.82,27.93Q404.58,733,372.35,743.35c-14.83,4.77-30,8.67-45.21,12-15.67,3.41-31.59,3.55-47.62,1.48-21-2.71-41-8.91-60.15-17.38A396.19,396.19,0,0,1,172,715.12c-27.45-16.86-54.35-34.64-81-52.73C78.78,654.1,71.33,641.51,65.67,628c-12.62-30.25-14.39-62.13-12.48-94.11,1.23-20.63,5.57-41.08,8.53-61.61a39.78,39.78,0,0,1,1.16-3.89c1,2.75,1.67,4.1,2,5.53,4.52,19.22,8.7,38.52,13.62,57.64a34.85,34.85,0,0,0,13.22,19.85c18,13.44,35.57,27.39,55.71,37.57a50.88,50.88,0,0,0,10.09,4.17c1.79.46,4.22-.31,6-1.22,12.4-6.39,24.42-13.57,37.1-19.34,17.67-8,36.3-13.08,55.92-12.75,13.11.22,25.88,2.36,36.56,11a27.18,27.18,0,0,1,4.64,4.49c2.45,3.21,5,3,7.56.49,15.43-15.12,34.28-18.5,54.5-14.61,13.79,2.65,26.18,9.45,38.07,16.91,6.9,4.33,13.78,8.68,20.8,12.8a9.54,9.54,0,0,0,5.69,1.37A173.44,173.44,0,0,0,489.19,569c10.25-6.14,15.32-16.15,19.37-26.46,8.38-21.31,15.88-43,23.76-64.48a47.57,47.57,0,0,1,2-4.58C534.51,473.14,535.08,473,536,472.3ZM360.38,648c4.81-.85,8.63-.91,12-2.2,17-6.64,25.18-20.74,30.21-37.2.9-2.93-.19-5-3.61-5.84-8.06-2-16-4.33-24-6.6-18.34-5.22-37.19-7.45-56.1-7.89-16.91-.4-33.86.93-50.78,1.77-19,.94-37.52,5.15-55.59,10.9-11.79,3.75-12.33,1-6.87,14.43,6.93,17.09,19.59,27.72,37.52,30.84,11.85,2.06,23.71-.16,35.4-3.62,8.67-2.56,17.89-4.64,26.84-4.55,10,.11,20,2.76,29.92,4.61C344,644.31,352.71,646.38,360.38,648Z" transform="translate(-52.55 -85.89)"/>
  </g>
</svg>
